PathFileType	4	(X/Y/Z)	/Users/itak/Documents/Research/Walk-IL/dataset/trc/00158_00008.trc
DataRate	CameraRate	NumFrames	NumMarkers	Units	OrigDataRate	OrigDataStartFrame	OrigNumFrames
100.000000	100.000000	4	53	mm	100.000000	475	543
Frame#	Time	RPSI			LPSI			L3			STRN			T10			C7			CLAV			RBAK			LBAK			LSHO			LUPA			LAEL			LAOL			LWTS			LWPS			LFRA			LIFD			LHPS			LHTS			RSHO			RUPA			RAEL			RAOL			RWTS			RWPS			RFRA			RIFD			RHTS			RHPS			RBHD			LFHD			RFHD			LBHD			LHIP			RHIP			RASI			LASI			LKNE			LTHI			LANK			LTIP			LTOE			LMT1			LMT5			LHEE			RKNE			RTHI			RANK			RTIP			RTOE			RMT1			RMT5			RHEE			
		X1	Y1	Z1	X2	Y2	Z2	X3	Y3	Z3	X4	Y4	Z4	X5	Y5	Z5	X6	Y6	Z6	X7	Y7	Z7	X8	Y8	Z8	X9	Y9	Z9	X10	Y10	Z10	X11	Y11	Z11	X12	Y12	Z12	X13	Y13	Z13	X14	Y14	Z14	X15	Y15	Z15	X16	Y16	Z16	X17	Y17	Z17	X18	Y18	Z18	X19	Y19	Z19	X20	Y20	Z20	X21	Y21	Z21	X22	Y22	Z22	X23	Y23	Z23	X24	Y24	Z24	X25	Y25	Z25	X26	Y26	Z26	X27	Y27	Z27	X28	Y28	Z28	X29	Y29	Z29	X30	Y30	Z30	X31	Y31	Z31	X32	Y32	Z32	X33	Y33	Z33	X34	Y34	Z34	X35	Y35	Z35	X36	Y36	Z36	X37	Y37	Z37	X38	Y38	Z38	X39	Y39	Z39	X40	Y40	Z40	X41	Y41	Z41	X42	Y42	Z42	X43	Y43	Z43	X44	Y44	Z44	X45	Y45	Z45	X46	Y46	Z46	X47	Y47	Z47	X48	Y48	Z48	X49	Y49	Z49	X50	Y50	Z50	X51	Y51	Z51	X52	Y52	Z52	X53	Y53	Z53	

476	4.75	1013.895080566406	1040.467895507812	7.630434036254883	1014.515197753906	1040.411987304688	-116.3358840942383	1011.747497558594	1075.76220703125	-50.9611701965332	1243.919189453125	1310.642944335938	-55.45921325683594	957.74951171875	1225.551635742188	-53.61423110961914	989.0822143554688	1501.764526367188	-69.30940246582031	1201.608642578125	1419.395141601562	-64.640625	944.2548217773438	1319.621459960938	42.54449462890625	984.408447265625	1474.748657226562	-168.8834075927734	1061.765625	1468.522583007812	-247.9088287353516	1043.18701171875	1331.966430664062	-317.6245422363281	1088.580444335938	1118.404541015625	-334.4811401367188	1048.789794921875	1096.710083007812	-259.6416320800781	1237.862182617188	910.439697265625	-303.6700439453125	1160.869873046875	874.8876953125	-343.3591918945312	1120.623779296875	1012.017700195312	-347.8556213378906	1281.68505859375	728.3380126953125	-278.6642456054688	1193.717529296875	809.5007934570312	-338.90185546875	1261.615356445312	834.5870361328125	-322.6255798339844	1055.48193359375	1487.9755859375	113.2361526489258	1042.247802734375	1418.761962890625	182.4967498779297	1057.643188476562	1128.316162109375	227.5655822753906	1062.571655273438	1122.001708984375	130.4154357910156	1222.245483398438	919.4332275390625	216.7219696044922	1147.331420898438	893.5011596679688	256.3497314453125	1090.201049804688	1060.624267578125	246.1857757568359	1257.79833984375	734.9832763671875	191.6729888916016	1257.555419921875	828.1848754882812	226.05078125	1183.911010742188	814.0209350585938	254.1908416748047	1039.1669921875	1682.890014648438	-4.588801383972168	1197.030151367188	1717.32861328125	-149.9864959716797	1205.09228515625	1730.986572265625	-20.66800880432129	1021.627868652344	1675.59375	-140.7032470703125	1129.964111328125	988.525146484375	-234.3799133300781	1169.72314453125	1011.082946777344	132.0299530029297	1248.031982421875	1045.983276367188	76.64817047119141	1241.725830078125	1039.874267578125	-181.7279052734375	1139.1337890625	497.9514770507812	-212.8113403320312	1147.6015625	639.8766479492188	-236.0526885986328	1044.86474609375	37.39220809936523	-227.9528045654297	1093.908569335938	275.573974609375	-233.5260772705078	1263.786865234375	33.83815002441406	-218.4313659667969	1217.861572265625	37.44948196411133	-167.1486968994141	1147.811889648438	27.57232093811035	-276.282470703125	1000.581604003906	39.23099517822266	-154.6886291503906	1159.381591796875	514.1438598632812	93.99765014648438	1221.747924804688	779.91015625	132.3341064453125	1039.517578125	36.49039077758789	79.12599182128906	1159.385131835938	393.6260681152344	71.00413513183594	1263.041259765625	37.04423522949219	48.09373474121094	1207.3134765625	36.50776290893555	1.567974090576172	1149.387329101562	30.52768516540527	117.7803421020508	988.1390991210938	39.89962005615234	12.06069755554199	
477	4.76	1016.058959960938	1040.463256835938	6.381752967834473	1016.80419921875	1040.249755859375	-117.6221542358398	1014.048278808594	1075.528076171875	-52.31951522827148	1246.390258789062	1310.150146484375	-56.37387466430664	960.1441650390625	1225.38720703125	-55.34069442749023	991.7257690429688	1501.591430664062	-70.86650085449219	1204.186401367188	1418.931030273438	-65.59420776367188	946.4013061523438	1319.355102539062	40.70370483398438	987.3052978515625	1474.564575195312	-170.4681549072266	1064.94873046875	1468.259643554688	-249.2707824707031	1046.577026367188	1331.78369140625	-319.1734924316406	1092.163330078125	1118.21533203125	-336.3407897949219	1051.10009765625	1096.445068359375	-262.0525817871094	1240.9453125	910.0543212890625	-304.5165100097656	1164.3798828125	874.7294311523438	-345.0402221679688	1124.296264648438	1011.881652832031	-349.6817626953125	1284.520141601562	727.927490234375	-279.5643310546875	1197.165161132812	809.2867431640625	-340.4163208007812	1264.91552734375	834.3782958984375	-323.5261535644531	1057.651733398438	1487.55224609375	111.9645156860352	1043.97216796875	1418.187866210938	181.0928344726562	1057.8017578125	1127.6953125	225.0699768066406	1063.162353515625	1121.607543945312	127.8618392944336	1219.201782226562	916.3671875	214.8628387451172	1143.797607421875	891.8270263671875	254.3595123291016	1089.29833984375	1059.484741210938	243.6090545654297	1251.133911132812	731.05224609375	189.6490020751953	1252.755493164062	824.2420043945312	224.0590362548828	1178.82275390625	811.6234130859375	252.1728057861328	1041.095458984375	1682.364624023438	-5.785719871520996	1198.666381835938	1717.472412109375	-151.3165740966797	1206.795288085938	1731.142578125	-22.02827072143555	1023.455200195312	1675.001586914062	-141.8955078125	1132.168212890625	988.07080078125	-235.466064453125	1171.7509765625	1010.948547363281	131.0219116210938	1250.13720703125	1045.577758789062	75.67134094238281	1244.135620117188	1039.198974609375	-182.7204284667969	1138.297485351562	497.6875	-213.2538146972656	1147.645385742188	639.5722045898438	-236.5621032714844	1044.850830078125	37.33665084838867	-228.0087280273438	1093.273803710938	275.6260070800781	-233.807373046875	1263.768188476562	33.81592178344727	-218.4518890380859	1217.849365234375	37.49330520629883	-167.1983489990234	1147.786987304688	27.51852989196777	-276.3654479980469	1000.5439453125	39.21517562866211	-154.718505859375	1159.906494140625	514.2074584960938	93.68329620361328	1223.245971679688	779.7457275390625	131.6190032958984	1039.47021484375	36.51334381103516	79.04122161865234	1159.693237304688	393.5259399414062	70.65994262695312	1263.030517578125	37.04642105102539	48.10933685302734	1207.311279296875	36.49106597900391	1.57486093044281	1149.37353515625	30.53914642333984	117.7665100097656	988.1524658203125	39.89053726196289	11.95678615570068	
478	4.77	1018.120788574219	1040.503784179688	5.20316219329834	1018.996398925781	1040.113037109375	-118.8337249755859	1016.309631347656	1075.32373046875	-53.60825347900391	1248.806396484375	1309.658325195312	-57.27959442138672	962.49609375	1225.27490234375	-57.03997802734375	994.3636474609375	1501.468505859375	-72.41185760498047	1206.735961914062	1418.47998046875	-66.52979278564453	948.5082397460938	1319.152099609375	38.8759765625	990.197021484375	1474.442504882812	-172.0400390625	1068.123413085938	1468.048095703125	-250.6154632568359	1049.96337890625	1331.65478515625	-320.7083129882812	1095.719970703125	1118.077026367188	-338.1282653808594	1053.269409179688	1096.251342773438	-264.4093933105469	1243.900146484375	909.648193359375	-305.3358154296875	1167.744750976562	874.60009765625	-346.6767578125	1127.88525390625	1011.777038574219	-351.4334106445312	1287.108032226562	727.4498291015625	-280.4318237304688	1200.403076171875	809.0673217773438	-341.8843383789062	1268.032958984375	834.1224365234375	-324.4031677246094	1059.805908203125	1487.1572265625	110.7110061645508	1045.648559570312	1417.676025390625	179.6859893798828	1057.8271484375	1127.15380859375	222.6685791015625	1063.633422851562	1121.255126953125	125.4040222167969	1216.163208007812	913.5487060546875	213.1206512451172	1140.307495117188	890.3260498046875	252.4573364257812	1088.318725585938	1058.477172851562	241.1744842529297	1244.713134765625	727.5020751953125	187.7588806152344	1248.052856445312	820.6387939453125	222.2084197998047	1173.85986328125	809.4710693359375	250.2577972412109	1043.058349609375	1681.860717773438	-6.922173976898193	1200.33740234375	1717.63037109375	-152.5880126953125	1208.543823242188	1731.287109375	-23.33044242858887	1025.319580078125	1674.460083007812	-143.0307006835938	1134.26025390625	987.6342163085938	-236.4938354492188	1173.775390625	1010.830627441406	130.0513305664062	1252.210571289062	1045.192016601562	74.70025634765625	1246.432373046875	1038.543090820312	-183.7252197265625	1137.593017578125	497.4576110839844	-213.7448120117188	1147.68505859375	639.2673950195312	-237.1341705322266	1044.839477539062	37.29156875610352	-228.0555572509766	1092.719848632812	275.6764526367188	-234.0905456542969	1263.750122070312	33.79584503173828	-218.4736938476562	1217.841064453125	37.53733444213867	-167.24853515625	1147.763671875	27.47023010253906	-276.4420471191406	1000.511535644531	39.21090698242188	-154.7462463378906	1160.403564453125	514.2710571289062	93.37723541259766	1224.6650390625	779.57080078125	130.9512939453125	1039.430297851562	36.53306198120117	78.95770263671875	1159.969116210938	393.4227905273438	70.32737731933594	1263.017333984375	37.03851318359375	48.11733245849609	1207.311279296875	36.47737503051758	1.584137916564941	1149.35791015625	30.54995727539062	117.7526245117188	988.1712036132812	39.89430618286133	11.85263156890869	
479	4.78	1020.091430664062	1040.594970703125	4.091795444488525	1021.098693847656	1040.018188476562	-119.9743957519531	1018.517517089844	1075.17236328125	-54.83120727539062	1251.1650390625	1309.180541992188	-58.17610168457031	964.8135986328125	1225.220825195312	-58.70604705810547	996.9885864257812	1501.399047851562	-73.94319152832031	1209.254150390625	1418.055541992188	-67.44808197021484	950.5762939453125	1319.022338867188	37.06754684448242	993.0770874023438	1474.387084960938	-173.5974426269531	1071.281127929688	1467.900390625	-251.9421234130859	1053.337280273438	1331.588989257812	-322.2279968261719	1099.246704101562	1118.000610351562	-339.8373413085938	1055.33984375	1096.139892578125	-266.6971435546875	1246.729614257812	909.2313842773438	-306.1266479492188	1170.955688476562	874.5040283203125	-348.2601928710938	1131.383666992188	1011.713195800781	-353.1020202636719	1289.432006835938	726.9129638671875	-281.2629699707031	1203.424072265625	808.8526611328125	-343.3028564453125	1270.96240234375	833.8272705078125	-325.2510375976562	1061.937744140625	1486.8037109375	109.4678497314453	1047.27783203125	1417.248779296875	178.2758636474609	1057.720092773438	1126.706176757812	220.3586120605469	1063.986938476562	1120.968627929688	123.0370941162109	1213.15576171875	910.9949340820312	211.5077667236328	1136.869140625	889.00439453125	250.6349182128906	1087.265502929688	1057.630859375	238.8844909667969	1238.585693359375	724.342529296875	186.0199432373047	1243.476684570312	817.3939819335938	220.5179443359375	1169.045532226562	807.5706176757812	248.4460144042969	1045.055297851562	1681.3857421875	-8.003449440002441	1202.051391601562	1717.807861328125	-153.8003234863281	1210.342529296875	1731.420288085938	-24.56669807434082	1027.224975585938	1673.984252929688	-144.1115570068359	1136.260009765625	987.2393188476562	-237.4633941650391	1175.781860351562	1010.73095703125	129.1195068359375	1254.24365234375	1044.83154296875	73.73954010009766	1248.625366210938	1037.916748046875	-184.7321929931641	1137.0224609375	497.262451171875	-214.2683715820312	1147.761596679688	638.967529296875	-237.7494964599609	1044.83056640625	37.25722885131836	-228.0925903320312	1092.261962890625	275.7305908203125	-234.3712768554688	1263.734619140625	33.77701187133789	-218.4966278076172	1217.837646484375	37.57990646362305	-167.2977142333984	1147.744018554688	27.42801666259766	-276.5105590820312	1000.486389160156	39.22116088867188	-154.7716827392578	1160.8916015625	514.3260498046875	93.07259368896484	1225.995361328125	779.3860473632812	130.3269653320312	1039.400390625	36.55160903930664	78.87471008300781	1160.22607421875	393.3243713378906	70.00722503662109	1263.004028320312	37.02360916137695	48.12038421630859	1207.314819335938	36.46722030639648	1.595161080360413	1149.340698242188	30.56008148193359	117.7363052368164	988.1984252929688	39.91328811645508	11.7472505569458	
